<?xml version="1.0" encoding="utf-8"?>
<!-- Generator: Adobe Illustrator 17.0.0, SVG Export Plug-In . SVG Version: 6.00 Build 0)  -->
<!DOCTYPE svg PUBLIC "-//W3C//DTD SVG 1.1//EN" "http://www.w3.org/Graphics/SVG/1.1/DTD/svg11.dtd">
<svg version="1.1" id="Layer_1" xmlns="http://www.w3.org/2000/svg" xmlns:xlink="http://www.w3.org/1999/xlink" x="0px" y="0px"
	 width="480.402px" height="258.781px" viewBox="0 0 480.402 258.781" enable-background="new 0 0 480.402 258.781"
	 xml:space="preserve">
<g>
	<path fill-rule="evenodd" clip-rule="evenodd" fill="#00A9DA" d="M53.239,144.322l-25.713,0.021l-0.214-58.009L53.239,144.322z
		 M53.239,144.322"/>
	<polygon fill-rule="evenodd" clip-rule="evenodd" fill="#00A9DA" points="0,0.251 338.848,0 441.989,144.182 61.237,144.343 	"/>
	<path fill-rule="evenodd" clip-rule="evenodd" fill="#E3001D" d="M4.872,6.909"/>
	<g>
		<g>
			<path fill="#FFFFFF" d="M135.816,71.945l-25.794,0.092l-0.007-2.295c-0.014-3.074,0.569-5.967,1.742-8.686
				c1.164-2.719,2.751-5.083,4.747-7.097c2.002-2.009,4.359-3.617,7.064-4.802c2.712-1.193,5.599-1.795,8.665-1.802l5.666-0.021
				l-0.087-24.962l-5.845,0.026c-6.49,0.021-12.589,1.286-18.301,3.783c-5.719,2.498-10.688,5.907-14.919,10.232
				c-4.233,4.327-7.555,9.348-9.951,15.08c-2.397,5.732-3.583,11.845-3.555,18.334l0.261,71.509l24.783-0.093l-0.166-44.604
				l20.257-0.073"/>
			<path fill="#FFFFFF" d="M135.689,71.945l0.127,0c2.157-4.092,4.837-7.765,8.056-11.003c4.232-4.265,9.207-7.647,14.919-10.145
				c5.719-2.504,11.82-3.763,18.308-3.79l5.664-0.021l0.049,12.834l0,0l-9.108,12.304c-1.727,0.291-3.399,0.761-5.003,1.467
				c-2.712,1.191-5.062,2.793-7.064,4.807c-1.995,2.009-3.548,4.38-4.661,7.099c-1.111,2.719-1.599,5.611-1.473,8.679l0.175,46.9
				l-25.138,0.094l-0.166-44.604l-0.122,0"/>
		</g>
		<path fill="#FFFFFF" d="M182.811,59.821c3.94-3.823,8.494-6.876,13.679-9.164c5.652-2.498,11.725-3.765,18.22-3.783
			c6.603-0.027,12.804,1.159,18.596,3.555c5.792,2.397,10.82,5.712,15.08,9.951c3.195,3.169,5.894,6.771,8.097,10.805l0.054,0.101
			c2.111-3.951,4.705-7.52,7.779-10.706c4.171-4.32,9.085-7.728,14.737-10.232c5.659-2.498,11.732-3.756,18.22-3.783
			c6.61-0.021,12.81,1.166,18.596,3.562c5.792,2.398,10.82,5.712,15.087,9.944c4.258,4.232,7.64,9.235,10.145,15.006
			c2.498,5.772,3.756,11.905,3.783,18.394c0.012,4.366-0.617,8.792-1.903,13.285l-27.253,0.101c2.933-3.67,4.392-8.103,4.373-13.292
			c-0.007-3.187-0.61-6.134-1.802-8.845c-1.191-2.705-2.793-5.062-4.802-7.057c-2.016-2.002-4.387-3.557-7.099-4.668
			c-2.719-1.111-5.671-1.661-8.859-1.647c-3.067,0.007-5.926,0.61-8.576,1.802c-2.652,1.191-4.976,2.818-6.972,4.894
			c-2.002,2.069-3.555,4.467-4.666,7.186c-1.113,2.719-1.661,5.611-1.647,8.677c0.005,3.067,0.609,5.926,1.8,8.578
			c1.186,2.652,2.793,4.976,4.802,6.972c2.016,2.002,4.412,3.555,7.186,4.666c2.779,1.113,5.705,1.661,8.772,1.647l35.75-0.134
			l0.094,24.783l-35.757,0.134c-6.49,0.021-12.596-1.164-18.328-3.562c-5.732-2.396-10.76-5.712-15.087-9.944
			c-4.318-4.231-7.733-9.173-10.231-14.832c-0.739-1.672-1.37-3.382-1.892-5.128v-0.001l-19.63,0.073
			c2.94-3.67,4.399-8.096,4.38-13.292c-0.014-3.182-0.617-6.134-1.802-8.839c-1.193-2.712-2.792-5.069-4.808-7.066
			c-2.016-1.995-4.38-3.555-7.099-4.659c-2.717-1.113-5.671-1.668-8.852-1.654c-3.074,0.014-5.933,0.615-8.578,1.802
			c-2.65,1.191-4.975,2.825-6.977,4.894c-1.995,2.076-3.548,4.467-4.661,7.186c-1.111,2.717-1.659,5.611-1.652,8.677
			c0.012,3.074,0.615,5.933,1.8,8.578c1.193,2.652,2.792,4.975,4.808,6.977c2.016,1.995,4.406,3.555,7.184,4.661
			c2.78,1.111,5.7,1.661,8.767,1.654l35.757-0.134l0.094,24.783l-35.759,0.127c-6.488,0.027-12.601-1.159-18.334-3.555
			c-5.732-2.405-10.76-5.719-15.08-9.951c-4.325-4.232-7.733-9.173-10.232-14.825c-2.498-5.659-3.763-11.732-3.783-18.221
			c-0.026-6.488,1.159-12.603,3.557-18.335c0.554-1.321,1.167-2.596,1.815-3.843l-0.141-0.201"/>
	</g>
	<path fill-rule="evenodd" clip-rule="evenodd" fill="#FFFFFF" d="M212.688,82.395c6.857-0.019,12.442,5.518,12.469,12.375
		c0.021,6.857-5.518,12.442-12.375,12.469c-6.857,0.019-12.442-5.518-12.468-12.375C200.294,88.008,205.831,82.423,212.688,82.395
		L212.688,82.395z M212.688,82.395"/>
	<g>
		<path fill="#FFFFFF" d="M167.079,182.561l-0.06,0.093l-0.065-17.688l-24.469,0.087l0.175,46.994
			c0.014,3.053-0.389,5.9-1.198,8.545c-0.811,2.645-1.949,4.935-3.41,6.876c-1.459,1.942-3.214,3.502-5.263,4.682
			c-2.049,1.184-4.359,1.781-6.944,1.788c-5.042,0.019-8.899-1.963-11.551-5.94c-2.652-3.984-3.998-9.315-4.018-16.004
			l-0.173-46.821l-24.642,0.094l0.173,47.169c-0.093,6.454-1.479,11.677-4.164,15.682c-2.686,3.998-6.49,6.007-11.418,6.027
			c-2.698,0.007-5.108-0.569-7.224-1.735c-2.117-1.166-3.884-2.772-5.297-4.82c-1.419-2.05-2.511-4.394-3.281-7.032
			c-0.777-2.638-1.166-5.417-1.179-8.357l-0.173-46.814l-24.817,0.087l0.175,47.176c0.007,0.938,0.007,1.788,0.007,2.551
			c0.005,0.763,0.067,1.493,0.187,2.196c0.609,5.866,2.069,11.317,4.373,16.352c2.309,5.043,5.283,9.428,8.94,13.172
			c3.648,3.744,7.915,6.656,12.788,8.751c4.882,2.097,10.313,3.135,16.292,3.108c5.518-0.021,10.5-1.179,14.953-3.482
			c4.447-2.311,8.431-4.995,11.94-8.057c3.998,3.034,8.29,5.693,12.877,7.963c4.586,2.27,9.341,3.394,14.269,3.382
			c6.334-0.027,12.113-1.253,17.322-3.677c5.21-2.424,9.663-5.758,13.34-9.99c2.895-3.334,5.263-7.117,7.138-11.317l1.399-0.06"/>
		<g>
			<path fill="#FFFFFF" d="M239.7,182.416c-1.162-1.448-2.379-2.849-3.709-4.15c-4.292-4.212-9.295-7.539-14.993-9.977
				c-5.705-2.444-11.779-3.596-18.234-3.456c-6.334,0.021-12.313,1.279-17.938,3.764c-5.626,2.484-10.541,5.878-14.746,10.171
				c-1.211,1.236-2.195,2.536-3.062,3.886l-4.337,50.949c1.497,2.585,3.353,4.761,5.565,6.863l18.815,17.886
				c10.854-0.039,21.709-0.081,32.563-0.12l-32.999-31.915c-3.535-4.205-5.316-9.012-5.336-14.41
				c-0.014-3.166,0.537-6.099,1.64-8.806c1.106-2.705,2.652-5.081,4.64-7.143c1.982-2.064,4.299-3.684,6.931-4.868
				c2.638-1.186,5.477-1.781,8.532-1.788c3.166-0.014,6.106,0.528,8.804,1.634c2.705,1.104,5.09,2.684,7.145,4.728
				c2.062,2.049,3.684,4.419,4.868,7.111c1.186,2.691,1.841,5.624,1.97,8.792l0.173,46.646l24.469-0.094l-0.064-17.186"/>
			<g>
				<g>
					<path fill="#FFFFFF" d="M477.53,195.059c-1.776-4.862-4.2-9.281-7.267-13.258l-15.555-17.9l-27.28,0.101
						c0.014,3.053-0.562,6.046-1.728,8.986c-1.166,2.933-2.738,5.585-4.721,7.935c-1.507,1.781-3.194,3.295-5.069,4.539
						c2.726,5.633,5.659,12.771,6.997,23.98c2.036-0.944,3.979-2.043,5.82-3.288c3.221-2.184,6.14-4.721,8.772-7.601
						c2.631-2.885,4.995-5.919,7.099-9.094l5.657,6.67c3.537,4.092,5.311,8.899,5.331,14.41c0.014,3.055-0.536,5.926-1.64,8.631
						c-1.106,2.707-2.652,5.057-4.64,7.059c-1.983,2.002-4.327,3.595-7.018,4.781c-2.698,1.178-5.624,1.781-8.799,1.788
						l-27.361,0.105l0.087,24.637l-0.442,0.002v0.005l27.81-0.106h0.355c6.449-0.021,12.516-1.279,18.2-3.765
						c5.679-2.484,10.627-5.845,14.838-10.083c4.205-4.246,7.5-9.214,9.884-14.914c2.39-5.698,3.569-11.779,3.542-18.226
						C480.268,205.057,479.312,199.921,477.53,195.059z"/>
					<path fill="#FFFFFF" d="M370.571,233.033c-3.046,0.014-5.953-0.535-8.718-1.641c-2.758-1.104-5.143-2.65-7.145-4.64
						c-2.002-1.982-3.596-4.292-4.781-6.931c-1.178-2.638-1.774-5.477-1.788-8.53c-0.014-3.053,0.537-5.926,1.64-8.631
						c1.106-2.7,2.652-5.083,4.64-7.145c1.982-2.062,4.292-3.684,6.931-4.868c2.638-1.179,5.477-1.781,8.532-1.788
						c3.166-0.014,6.099,0.535,8.804,1.641c2.707,1.104,5.057,2.652,7.059,4.634c2.002,1.988,3.595,4.332,4.781,7.025
						c1.178,2.698,1.781,5.624,1.788,8.792c0.019,5.162-1.426,9.569-4.347,13.218l27.1-0.101
						c4.325-15.147-0.837-35.376-11.96-46.425c-4.238-4.205-9.24-7.5-14.999-9.884c-5.758-2.383-11.926-3.569-18.495-3.542
						c-6.454,0.027-12.495,1.279-18.113,3.763c-5.624,2.484-10.513,5.88-14.658,10.172c-3.469,3.592-6.283,7.704-8.516,12.272
						l0.135,41.486c2.347,4.615,5.313,8.748,8.978,12.332c4.292,4.214,9.294,7.507,14.993,9.891
						c5.698,2.385,11.778,3.569,18.234,3.542l35.837-0.13l0.079-24.643"/>
				</g>
				<path fill="#FFFFFF" d="M329.145,192.897c0.392-0.938-1.259-1.573-0.819-2.472c-1.426-2.901-3.081-5.667-5.023-8.261
					l-15.73-17.718l-32.383,0.12l28.105,32.282c3.415,3.744,5.136,8.491,5.156,14.237c0.014,3.053-0.537,5.899-1.641,8.544
					c-1.106,2.645-2.652,4.97-4.633,6.972c-1.99,2-4.306,3.595-6.938,4.774c-2.638,1.184-5.479,1.781-8.532,1.795
					c-3.053,0.012-5.926-0.537-8.631-1.64c-2.705-1.106-5.055-2.652-7.057-4.642c-2.002-1.982-3.596-4.298-4.774-6.929
					c-1.186-2.64-1.781-5.479-1.795-8.532l-0.175-46.821l-24.642,0.094l0.066,17.717l-0.996,0.665l11.41,57.775l0.284,0.076
					c1.027,1.258,2.106,2.472,3.265,3.62c4.238,4.212,9.207,7.507,14.905,9.891c5.698,2.383,11.838,3.569,18.407,3.542
					c6.456-0.021,12.522-1.279,18.202-3.763c5.684-2.484,10.599-5.846,14.751-10.085c3.478-3.551,6.293-7.649,8.533-12.225"/>
			</g>
		</g>
	</g>
	<path fill-rule="evenodd" clip-rule="evenodd" fill="#FFFFFF" d="M212.494,107.24l33.139-0.129l-0.053-15.709l-33.146,0.129
		L212.494,107.24z M212.494,107.24"/>
	<path fill-rule="evenodd" clip-rule="evenodd" fill="#FFFFFF" d="M294.611,82.095c6.862-0.027,12.44,5.516,12.468,12.373
		c0.027,6.857-5.518,12.442-12.375,12.462c-6.857,0.027-12.442-5.511-12.461-12.368C282.215,87.706,287.754,82.121,294.611,82.095
		L294.611,82.095z M294.611,82.095"/>
	<path fill-rule="evenodd" clip-rule="evenodd" fill="#FFFFFF" d="M294.415,106.938l33.139-0.127l-0.053-15.709l-33.146,0.127
		L294.415,106.938z M294.415,106.938"/>
	<path fill-rule="evenodd" clip-rule="evenodd" fill="#FFFFFF" d="M367.055,199.405c6.864-0.019,12.442,5.518,12.469,12.375
		c0.026,6.857-5.518,12.442-12.375,12.468c-6.857,0.021-12.442-5.516-12.462-12.373
		C354.662,205.017,360.199,199.432,367.055,199.405L367.055,199.405z M367.055,199.405"/>
	<path fill-rule="evenodd" clip-rule="evenodd" fill="#FFFFFF" d="M366.862,224.247l33.139-0.12l-0.053-15.716l-33.146,0.127
		L366.862,224.247z M366.862,224.247"/>
</g>
</svg>
