<svg id="Vrstva_1" data-name="Vrstva 1" xmlns="http://www.w3.org/2000/svg" viewBox="0 0 80 80"><defs><style>.cls-1{fill:#a51e25;}.cls-2{fill:#fff;}</style></defs><title>ikona-windytv</title><circle class="cls-1" cx="40" cy="40" r="40"/><path class="cls-2" d="M151.16,459.81l-.1.89c-.06.59-.15,1.47-.24,2.6s-.19,2.5-.27,4.07-.15,3.35-.16,5.28,0,4,.15,6.19l.12,1.65.08.86.08.86c.12,1.15.26,2.32.43,3.48s.4,2.32.68,3.45A17.77,17.77,0,0,0,153,492.3a6.72,6.72,0,0,0,1.61,2.28,3.54,3.54,0,0,0,1,.61,3.7,3.7,0,0,0,.59.18l.32.06.17,0h.46l.3,0a4,4,0,0,0,.64-.12,6,6,0,0,0,1.36-.58,12.68,12.68,0,0,0,2.67-2.14,34.54,34.54,0,0,0,4.42-5.83c1.29-2.07,2.41-4.17,3.42-6.19s1.9-4,2.69-5.81c1.57-3.65,2.74-6.76,3.54-8.95.4-1.09.7-2,.9-2.55l.31-.9-.21.93c-.14.61-.35,1.5-.62,2.63-.56,2.26-1.39,5.49-2.57,9.33-.59,1.92-1.28,4-2.08,6.15s-1.72,4.44-2.83,6.74a37.74,37.74,0,0,1-4.15,6.89,16.61,16.61,0,0,1-3.18,3.15,10.29,10.29,0,0,1-2.18,1.23,8.47,8.47,0,0,1-1.28.41c-.22.05-.45.09-.68.13l-.39,0-.28,0h-.69c-.22,0-.44,0-.67,0a8.37,8.37,0,0,1-3.89-1.4,10.11,10.11,0,0,1-2-1.77,14,14,0,0,1-1.42-2,23,23,0,0,1-1.86-4c-.48-1.33-.86-2.63-1.18-3.91s-.6-2.53-.85-3.75l-.18-.91-.17-.89-.3-1.8c-.36-2.37-.59-4.6-.76-6.65s-.27-3.94-.33-5.6-.09-3.12-.1-4.32,0-2.14,0-2.8l0-1a4.29,4.29,0,1,1,8.59.18q0,.19,0,.38Z" transform="translate(-112 -436.06)"/><path class="cls-2" d="M136.75,459.08l.06,1,.18,2.8c.17,2.42.41,5.88.83,10,.21,2,.45,4.27.8,6.53,0,.28.09.57.13.85l.15.83.08.41.09.43c.06.27.12.56.19.83a35.09,35.09,0,0,0,1,3.4,23.81,23.81,0,0,0,3.22,6.4,9.15,9.15,0,0,0,2.3,2.23,4.64,4.64,0,0,0,1.24.57,3.83,3.83,0,0,0,.64.12H148c.21,0,.25,0,.36,0a2.6,2.6,0,0,0,.35,0l.38-.06.39-.08.4-.11a9.38,9.38,0,0,0,1.6-.66,17.53,17.53,0,0,0,3.1-2.1,39.34,39.34,0,0,0,5.35-5.6c1.6-2,3-4.05,4.33-6.05s2.45-3.94,3.46-5.76c2-3.64,3.54-6.8,4.51-9a36.13,36.13,0,0,0,1.38-3.58,36.25,36.25,0,0,1-1,3.72c-.75,2.34-1.93,5.65-3.61,9.52-.84,1.94-1.81,4-2.92,6.18s-2.37,4.41-3.83,6.67a42.52,42.52,0,0,1-5.18,6.63,21.4,21.4,0,0,1-3.51,2.92,13.62,13.62,0,0,1-2.16,1.16c-.19.09-.39.16-.59.23s-.41.14-.62.2-.42.12-.64.17a6.91,6.91,0,0,1-.69.13l-.68.08-.26,0h-.4a8.48,8.48,0,0,1-1.44-.11,9.38,9.38,0,0,1-2.67-.86,14,14,0,0,1-4-3.1,24.39,24.39,0,0,1-2.78-3.69,35.25,35.25,0,0,1-2.06-3.84,41.39,41.39,0,0,1-1.56-3.88c-.11-.33-.22-.64-.32-1l-.15-.48c-.05-.18-.09-.33-.14-.49l-.26-1c-.08-.32-.15-.62-.23-.93-.59-2.46-1-4.73-1.43-6.83-.78-4.2-1.32-7.68-1.69-10.13l-.42-2.84-.14-1a4.29,4.29,0,0,1,8.5-1.21q0,.17,0,.35Z" transform="translate(-112 -436.06)"/></svg>